<svg width="100" height="38" viewBox="0 0 39 15" fill="none" xmlns="http://www.w3.org/2000/svg">
  <path fill-rule="evenodd" clip-rule="evenodd" d="M6.58218 14.7371H9.87314V8.98947C9.87314 5.89474 8.37725 4.35816 5.38547 4.35816C4.42383 4.35816 3.71862 4.56842 3.29096 4.98947V0H0V14.7371H3.29096V8.73684C3.29096 7.70526 3.80384 7.17895 4.85123 7.17895C6.0052 7.17895 6.58218 7.85289 6.58218 9.22105V14.7371ZM15.1514 8.23165H18.5706C18.3355 7.30534 17.6733 6.82139 16.8399 6.82139C15.9207 6.82139 15.3651 7.28428 15.1514 8.23165ZM20.558 5.8527C21.5413 6.88428 22.0328 8.18955 22.0328 9.78981C22.0328 11.4738 21.5413 12.7582 20.5366 13.6211C19.5539 14.5056 18.3141 14.9477 16.8399 14.9477C14.0188 14.9477 12.5015 13.4951 11.9673 11.4738H15.301C15.5363 12.0422 16.0276 12.3161 16.7755 12.3161C17.6947 12.3161 18.421 11.7264 18.6561 10.6317H11.8391L11.7963 9.64218C11.7963 8.08428 12.2451 6.80033 13.1426 5.8106C14.0402 4.82112 15.2371 4.33691 16.7541 4.33691C18.3141 4.33691 19.5966 4.84218 20.558 5.8527ZM34.1493 14.7371H30.3882L28.2937 12.0424L26.2422 14.7371H22.4597L26.3918 9.59999L22.5022 4.54736H26.2852L28.2723 7.13684L30.2597 4.54736H34.0424L30.1742 9.59999L34.1493 14.7371ZM36.8628 11.1581C35.5806 11.1581 34.7897 11.9791 34.7897 13.0739C34.7897 14.1686 35.5593 14.9686 36.8628 14.9686C38.145 14.9686 38.9141 14.1686 38.9141 13.0739C38.9141 11.9791 38.145 11.1581 36.8628 11.1581Z" fill="white"/>
</svg>
